<svg width="980" height="551" xmlns="http://www.w3.org/2000/svg" xmlns:xlink="http://www.w3.org/1999/xlink">
<path fill="#ff595e" d="M 230.94 263.39 Q 230.94 263.39 230.94 263.40 230.93 263.40 230.93 263.40 230.93 263.41 230.93 263.40 Z" data-drauu_index="0"></path><path fill="#ff595e" d="M 230.94 263.39 Q 230.94 263.39 230.94 263.40 230.93 263.40 230.93 263.40 230.93 263.41 230.93 263.40 Z" data-drauu_index="1"></path><path fill="#ff595e" d="M 144.95 336.21 Q 144.95 336.21 144.95 336.21 144.94 336.21 144.94 336.22 144.94 336.22 144.94 336.21 Z" data-drauu_index="2"></path><path fill="#ff595e" d="M 144.95 336.21 Q 144.95 336.21 144.95 336.21 144.94 336.21 144.94 336.22 144.94 336.22 144.94 336.21 Z" data-drauu_index="3"></path><path fill="#ff595e" d="M 144.95 336.21 Q 144.95 336.21 144.95 336.21 144.94 336.21 144.94 336.22 144.94 336.22 144.94 336.21 Z" data-drauu_index="4"></path><path fill="#ff595e" d="M 171.30 348.00 Q 171.30 348.00 171.30 348.00 171.30 348.00 171.29 348.01 171.29 348.01 171.30 348.00 Z" data-drauu_index="5"></path><path fill="#ff595e" d="M 248.28 334.82 Q 248.28 334.82 248.27 334.82 248.27 334.83 248.27 334.83 248.26 334.83 248.27 334.83 Z" data-drauu_index="6"></path><path fill="#ff595e" d="M 248.28 334.82 Q 248.28 334.82 248.27 334.82 248.27 334.83 248.27 334.83 248.26 334.83 248.27 334.83 Z" data-drauu_index="7"></path><path fill="#ff595e" d="M 233.71 402.78 Q 233.71 402.78 233.71 402.78 233.71 402.79 233.70 402.79 233.70 402.79 233.71 402.79 Z" data-drauu_index="8"></path><path fill="#ff595e" d="M 293.35 460.34 Q 293.35 460.34 293.35 460.34 293.35 460.34 293.34 460.35 293.34 460.35 293.35 460.34 Z" data-drauu_index="9"></path><path fill="#ff595e" d="M 586.69 363.25 Q 586.69 363.25 586.69 363.25 586.68 363.26 586.68 363.26 586.67 363.27 586.68 363.26 Z" data-drauu_index="10"></path>
</svg>